<?xml version="1.0" encoding="UTF-8" standalone="no"?>
<!-- Created with Inkscape (http://www.inkscape.org/) -->
<svg id="svg2" xmlns:rdf="http://www.w3.org/1999/02/22-rdf-syntax-ns#" xmlns="http://www.w3.org/2000/svg" height="442.16" width="992.3" version="1.1" xmlns:cc="http://creativecommons.org/ns#" xmlns:dc="http://purl.org/dc/elements/1.1/">
 <g id="layer1" transform="translate(618.83 415.42)">
  <path id="path3025" d="m-331.43-504.71c0 18.935-15.99 34.286-35.714 34.286s-35.714-15.35-35.714-34.286c0-18.935 15.99-34.286 35.714-34.286s35.714 15.35 35.714 34.286z" fill-rule="evenodd" transform="matrix(1.3156 0 0 1.3156 381.08 582.55)" stroke="#000" stroke-width="1px" fill="#fff"/>
  <path id="path3030" d="m-351.98-629.89c0 5.021-6.586 9.0914-14.71 9.0914-8.1242 0-14.71-4.0703-14.71-9.0914 0-5.021 6.586-9.0914 14.71-9.0914 8.1242 0 14.71 4.0704 14.71 9.0914z" fill-rule="evenodd" transform="matrix(.70490 0 0 1 137.52 533.53)" stroke="#000" stroke-width="1px" fill="#fff"/>
  <path id="path3030-7" d="m-351.98-629.89c0 5.021-6.586 9.0914-14.71 9.0914-8.1242 0-14.71-4.0703-14.71-9.0914 0-5.021 6.586-9.0914 14.71-9.0914 8.1242 0 14.71 4.0704 14.71 9.0914z" fill-rule="evenodd" transform="matrix(.70490 0 0 1 175.19 533.53)" stroke="#000" stroke-width="1px" fill="#fff"/>
  <path id="path3050" d="m-390.93-496.55 45.457 1.0102" transform="translate(265.22 437.56)" stroke="#000" stroke-width="1px" fill="#fff"/>
  <path id="path3025-6" d="m-331.43-504.71c0 18.935-15.99 34.286-35.714 34.286s-35.714-15.35-35.714-34.286c0-18.935 15.99-34.286 35.714-34.286s35.714 15.35 35.714 34.286z" fill-rule="evenodd" transform="matrix(.92507 0 0 .92507 383.63 286.69)" stroke="#000" stroke-width="1px" fill="#fff"/>
  <text id="text3070" style="word-spacing:0px;letter-spacing:0px" xml:space="preserve" font-size="40px" y="-167.0692" x="25.812597" font-family="Sans" line-height="125%" fill="#000000"><tspan id="tspan3072" x="25.812597" y="-167.0692">fb</tspan></text>
  <path id="path3025-6-31" d="m-331.43-504.71c0 18.935-15.99 34.286-35.714 34.286s-35.714-15.35-35.714-34.286c0-18.935 15.99-34.286 35.714-34.286s35.714 15.35 35.714 34.286z" fill-rule="evenodd" transform="matrix(.92507 0 0 .92507 4.8207 309.92)" stroke="#000" stroke-width="1px" fill="#fff"/>
  <text id="text3070-1" style="word-spacing:0px;letter-spacing:0px" xml:space="preserve" font-size="20px" y="-151.91693" x="-359.05554" font-family="Sans" line-height="125%" fill="#000000"><tspan id="tspan3190" x="-359.05554" y="-151.91693">mem</tspan></text>
  <path id="path3025-6-0" d="m-331.43-504.71c0 18.935-15.99 34.286-35.714 34.286s-35.714-15.35-35.714-34.286c0-18.935 15.99-34.286 35.714-34.286s35.714 15.35 35.714 34.286z" fill-rule="evenodd" transform="matrix(.92507 0 0 .92507 29.064 461.45)" stroke="#000" stroke-width="1px" fill="#fff"/>
  <text id="text3070-6" style="word-spacing:0px;letter-spacing:0px" xml:space="preserve" font-size="20px" y="0.075137101" x="-333.26071" font-family="Sans" line-height="125%" fill="#000000"><tspan id="tspan3072-1" x="-333.26071" y="0.075137101">work</tspan></text>
  <path id="path3025-6-31-9" d="m-331.43-504.71c0 18.935-15.99 34.286-35.714 34.286s-35.714-15.35-35.714-34.286c0-18.935 15.99-34.286 35.714-34.286s35.714 15.35 35.714 34.286z" fill-rule="evenodd" transform="matrix(.92507 0 0 .92507 138.16 241.23)" stroke="#000" stroke-width="1px" fill="#fff"/>
  <text id="text3070-1-9" style="word-spacing:0px;letter-spacing:0px" xml:space="preserve" font-size="20px" y="-220.60732" x="-225.71539" font-family="Sans" line-height="125%" fill="#000000"><tspan id="tspan3190-4" x="-225.71539" y="-220.60732">news</tspan></text>
  <path id="path3025-6-31-6" d="m-331.43-504.71c0 18.935-15.99 34.286-35.714 34.286s-35.714-15.35-35.714-34.286c0-18.935 15.99-34.286 35.714-34.286s35.714 15.35 35.714 34.286z" fill-rule="evenodd" transform="matrix(.92507 0 0 .92507 287.66 150.32)" stroke="#000" stroke-width="1px" fill="#fff"/>
  <text id="text3070-1-7" style="word-spacing:0px;letter-spacing:0px" xml:space="preserve" font-size="20px" y="-309.50076" x="-64.090981" font-family="Sans" line-height="125%" fill="#000000"><tspan id="tspan3190-8" x="-64.090981" y="-309.50076">ad</tspan></text>
  <path id="path3025-6-31-1" d="m-331.43-504.71c0 18.935-15.99 34.286-35.714 34.286s-35.714-15.35-35.714-34.286c0-18.935 15.99-34.286 35.714-34.286s35.714 15.35 35.714 34.286z" fill-rule="evenodd" transform="matrix(.92507 0 0 .92507 -39.626 83.65)" stroke="#000" stroke-width="1px" fill="#fff"/>
  <text id="text3070-1-3" style="word-spacing:0px;letter-spacing:0px" xml:space="preserve" font-size="20px" y="-378.1911" x="-403.50223" font-family="Sans" line-height="125%" fill="#000000"><tspan id="tspan3190-0" x="-403.50223" y="-378.1911">mort</tspan></text>
  <path id="path3025-6-31-2" d="m-331.43-504.71c0 18.935-15.99 34.286-35.714 34.286s-35.714-15.35-35.714-34.286c0-18.935 15.99-34.286 35.714-34.286s35.714 15.35 35.714 34.286z" fill-rule="evenodd" transform="matrix(.92507 0 0 .92507 -245.7 354.37)" stroke="#000" stroke-width="1px" fill="#fff"/>
  <text id="text3070-1-33" style="word-spacing:0px;letter-spacing:0px" xml:space="preserve" font-size="20px" y="-105.44993" x="-609.57336" font-family="Sans" line-height="125%" fill="#000000"><tspan id="tspan3190-6" x="-609.57336" y="-105.44993">unconf</tspan></text>
  <path id="path3025-6-31-99" d="m-331.43-504.71c0 18.935-15.99 34.286-35.714 34.286s-35.714-15.35-35.714-34.286c0-18.935 15.99-34.286 35.714-34.286s35.714 15.35 35.714 34.286z" fill-rule="evenodd" transform="matrix(.92507 0 0 .92507 655.36 206.89)" stroke="#000" stroke-width="1px" fill="#fff"/>
  <text id="text3070-1-5" style="word-spacing:0px;letter-spacing:0px" xml:space="preserve" font-size="20px" y="-254.9525" x="291.4827" font-family="Sans" line-height="125%" fill="#000000"><tspan id="tspan3190-7" x="291.4827" y="-254.9525">porn</tspan></text>
  <path id="path3025-6-31-96" d="m-331.43-504.71c0 18.935-15.99 34.286-35.714 34.286s-35.714-15.35-35.714-34.286c0-18.935 15.99-34.286 35.714-34.286s35.714 15.35 35.714 34.286z" fill-rule="evenodd" transform="matrix(.92507 0 0 .92507 471.51 91.731)" stroke="#000" stroke-width="1px" fill="#fff"/>
  <text id="text3070-1-2" style="word-spacing:0px;letter-spacing:0px" xml:space="preserve" font-size="20px" y="-370.10989" x="107.63495" font-family="Sans" line-height="125%" fill="#000000"><tspan id="tspan3190-66" x="107.63495" y="-370.10989">girl pic</tspan></text>
  <path id="path3025-6-31-65" d="m-331.43-504.71c0 18.935-15.99 34.286-35.714 34.286s-35.714-15.35-35.714-34.286c0-18.935 15.99-34.286 35.714-34.286s35.714 15.35 35.714 34.286z" fill-rule="evenodd" transform="matrix(.92507 0 0 .92507 -201.25 111.93)" stroke="#000" stroke-width="1px" fill="#fff"/>
  <text id="text3070-1-77" style="word-spacing:0px;letter-spacing:0px" xml:space="preserve" font-size="20px" y="-349.90683" x="-557.04541" font-family="Sans" line-height="125%" fill="#000000"><tspan id="tspan3190-61" x="-557.04541" y="-349.90683">bird</tspan></text>
  <path id="path3025-6-31-3" d="m-331.43-504.71c0 18.935-15.99 34.286-35.714 34.286s-35.714-15.35-35.714-34.286c0-18.935 15.99-34.286 35.714-34.286s35.714 15.35 35.714 34.286z" fill-rule="evenodd" transform="matrix(.92507 0 0 .92507 679.6 451.35)" stroke="#000" stroke-width="1px" fill="#fff"/>
  <text id="text3070-1-0" style="word-spacing:0px;letter-spacing:0px" xml:space="preserve" font-size="20px" y="-10.495587" x="321.78729" font-family="Sans" line-height="125%" fill="#000000"><tspan id="tspan3190-5" x="321.78729" y="-10.495587">fap</tspan></text>
 </g>
</svg>
