<?xml version="1.0" encoding="utf-8"?>
<!-- Generator: Adobe Illustrator 14.0.0, SVG Export Plug-In . SVG Version: 6.00 Build 43363)  -->
<!DOCTYPE svg PUBLIC "-//W3C//DTD SVG 1.1//EN" "http://www.w3.org/Graphics/SVG/1.1/DTD/svg11.dtd">
<svg version="1.1" id="Layer_2" xmlns="http://www.w3.org/2000/svg" xmlns:xlink="http://www.w3.org/1999/xlink" x="0px" y="0px"
	 width="828px" height="828px" viewBox="0 0 828 828" enable-background="new 0 0 828 828" xml:space="preserve">
<path fill="#D6B997" d="M-207.441,478.326l-1.111-7.584l7.605-0.965c4.743-0.602,9.366-2.258,13.283-5.025l6.334-4.475l4.276,6.471
	c6.918,10.439-0.312,24.895-12.752,25.766h-0.009C-198.377,493.098-206.198,486.834-207.441,478.326z M-175.154,438.73
	c2.797-8.968-2.655-18.748-11.745-21.088c-1.161-0.299-2.326-0.463-3.479-0.503c-8.394-0.294-16.171,5.967-17.209,14.628
	l-0.914,7.602l7.617,0.776c4.47,0.455,9.019,2.099,13.133,4.932l6.226,4.286l4.254-6.247
	C-176.363,441.782-175.645,440.307-175.154,438.73z M-132.725,482.727c17.633,0.224,24.854-12.881,25.268-25.753
	c0.232-7.216-1.674-14.358-5.083-19.039c-1.08-1.481-2.216-2.808-3.393-3.989c-4.436-4.966-12.028-7.058-19.405-6.993
	c-7.033,0.062-13.87,2.083-17.59,5.444c-1.804,1.465-3.365,3.119-4.604,4.896c-9.549,12.076-14.061,39.686,18.961,44.916
	C-136.507,482.536-134.56,482.703-132.725,482.727z M-278.304,498.973c2.537,0.179,4.972,0.255,7.309,0.237
	c4.314-0.033,8.295-0.39,11.967-1.015c7.219-1.23,13.238-3.5,18.245-6.4c10.774-6.237,16.838-15.41,19.956-23.465
	c1.544-3.98,2.362-7.691,2.677-10.637c0.884-8.303-0.244-23.164-13.142-34.001h-0.004c-0.995-0.841-2.061-1.653-3.202-2.437
	c-8.749-6.012-21.89-10.323-41.444-10.744c-22.606-0.481-38.038,3.114-48.123,9.099c-2.49,1.473-4.658,3.097-6.524,4.847
	c-6.983,6.521-9.773,14.728-9.807,23.273c-0.008,2.127,0.154,4.275,0.465,6.424c1.597,11.053,5.423,21.319,14.402,29.268
	c3.091,2.738,6.793,5.201,11.226,7.329c5.073,2.437,11.106,4.431,18.28,5.896C-290.753,497.722-284.871,498.509-278.304,498.973z
	 M-52.395,454.837h-0.007v0.007h0.007V454.837z"/>
</svg>
